<svg xmlns="http://www.w3.org/2000/svg" xmlns:xlink="http://www.w3.org/1999/xlink" xmlns:inkscape="http://www.inkscape.org/namespaces/inkscape" version="1.1" width="845.6233" height="222.68039" viewBox="0 0 845.6233 222.68039">
<defs>
<clipPath id="clip_1">
<path transform="matrix(1,0,0,-1,-86.66055,458.06507)" d="M86.66055 235.38474H932.2839V458.06513H86.66055Z"/>
</clipPath>
<clipPath id="clip_2">
<path transform="matrix(1,0,0,-1,-86.66055,458.06507)" d="M0 0H960V540H0Z"/>
</clipPath>
<clipPath id="clip_3">
<path transform="matrix(1,0,0,-1,-86.66055,458.06507)" d="M0 .00012207H960V540.0001H0Z" clip-rule="evenodd"/>
</clipPath>
<clipPath id="clip_4">
<path transform="matrix(1,0,0,-1,-86.66055,458.06507)" d="M.000014305 0H960V540H.000014305Z" clip-rule="evenodd"/>
</clipPath>
<path id="font_5_375" d="M.087890628 0V.72753909H.33691407C.3935547 .72753909 .44018556 .7172038 .47680665 .6965332 .51342776 .6758626 .5406087 .648112 .5583496 .61328127 .5760905 .5784505 .58496096 .539388 .58496096 .49609376 .58496096 .45279948 .5760905 .41357423 .5583496 .37841798 .5406087 .34326173 .5135091 .31526695 .47705079 .2944336 .44059245 .27360026 .39404298 .2631836 .33740235 .2631836H.16113281V.34472657H.3330078C.37141929 .34472657 .40234376 .35131837 .42578126 .36450196 .44921876 .37768556 .4662272 .39575196 .47680665 .41870118 .48738609 .4416504 .49267579 .4674479 .49267579 .49609376 .49267579 .52473959 .48738609 .5503743 .47680665 .57299807 .4662272 .59562179 .44913737 .61344406 .4255371 .62646487 .40193687 .63948568 .37076823 .6459961 .33203126 .6459961H.18066406V0H.087890628Z"/>
<clipPath id="clip_6">
<path transform="matrix(1,0,0,-1,-86.66055,458.06507)" d="M.000014305 0H960V540H.000014305Z" clip-rule="evenodd"/>
</clipPath>
<path id="font_7_888" d="M.2919922 .54589846V.47070313H.009765625V.54589846H.2919922M.091796878 .67578127H.1796875V.14160156C.1796875 .1171875 .18465169 .099365238 .19458008 .088134769 .20450847 .0769043 .22102864 .07128906 .24414063 .07128906 .24967449 .07128906 .25675456 .0719401 .26538087 .07324219 .27400718 .07454427 .28190104 .07584635 .2890625 .07714844L.3071289 .0029296876C.2980143-.00032552085 .28767906-.002766927 .27612306-.0043945314 .26456706-.0060221354 .25309245-.0068359377 .24169922-.0068359377 .1944987-.0068359377 .15771485 .0056152346 .13134766 .030517579 .10498047 .055419923 .091796878 .09016927 .091796878 .13476563V.67578127Z"/>
<path id="font_7_790" d="M.2993164-.01171875C.24983724-.01171875 .2064616 0 .16918946 .0234375 .13191732 .046875 .102864589 .0797526 .08203125 .12207031 .061197919 .16438802 .05078125 .21354167 .05078125 .26953126 .05078125 .3264974 .061197919 .3762207 .08203125 .41870118 .102864589 .46118165 .13191732 .49414063 .16918946 .5175781 .2064616 .5410156 .24983724 .5527344 .2993164 .5527344 .3491211 .5527344 .39274089 .5410156 .43017579 .5175781 .4676107 .49414063 .49674479 .46118165 .5175781 .41870118 .53841146 .3762207 .5488281 .3264974 .5488281 .26953126 .5488281 .21354167 .53841146 .16438802 .5175781 .12207031 .49674479 .0797526 .4676107 .046875 .43017579 .0234375 .39274089 0 .3491211-.01171875 .2993164-.01171875M.2993164 .06689453C.33610026 .06689453 .3663737 .07633463 .39013673 .095214847 .41389976 .114095058 .43147788 .13891602 .4428711 .16967774 .4542643 .20043946 .45996095 .23372396 .45996095 .26953126 .45996095 .30566407 .4542643 .33927409 .4428711 .37036134 .43147788 .40144859 .41389976 .42651368 .39013673 .44555665 .3663737 .4645996 .33610026 .4741211 .2993164 .4741211 .26285807 .4741211 .23291016 .4645996 .20947266 .44555665 .18603516 .42651368 .1686198 .40152995 .15722656 .37060548 .14583333 .339681 .14013672 .3059896 .14013672 .26953126 .14013672 .23372396 .14583333 .20043946 .15722656 .16967774 .1686198 .13891602 .18603516 .114095058 .20947266 .095214847 .23291016 .07633463 .26285807 .06689453 .2993164 .06689453Z"/>
<clipPath id="clip_8">
<path transform="matrix(1,0,0,-1,-86.66055,458.06507)" d="M.000014305 0H960V540H.000014305Z" clip-rule="evenodd"/>
</clipPath>
<path id="font_9_51" d="M.35595704 .27929688H.22314453V.07597351C.22314453 .046910604 .2163086 .02486674 .20263672 .009841919 .18896485-.005182902 .17171224-.0126953129 .1508789-.0126953129 .12906902-.0126953129 .11149088-.0052846276 .09814453 .009536743 .08479818 .024358115 .078125 .046101888 .078125 .07476807V.6268921C.078125 .6588135 .08544922 .6816152 .100097659 .69529727 .114746097 .7089793 .13802083 .7158203 .16992188 .7158203H.35595704C.41097007 .7158203 .45328776 .7115682 .48291017 .70306399 .51220706 .6949361 .5375163 .68144229 .5588379 .6625824 .5801595 .6437327 .5963542 .62065127 .6074219 .593338 .61848959 .566035 .62402346 .5353139 .62402346 .5011749 .62402346 .42834983 .6015625 .37316386 .5566406 .33561708 .51171877 .29807029 .44482423 .27929688 .35595704 .27929688M.32080079 .6064453H.22314453V.38867188H.32080079C.35498048 .38867188 .38354493 .39223735 .40649415 .3993683 .42944337 .40649925 .4469401 .41816203 .45898438 .4343567 .47102867 .45056153 .47705079 .4717916 .47705079 .49804688 .47705079 .52948 .46777345 .55507919 .44921876 .57484439 .4283854 .5959117 .38557945 .6064453 .32080079 .6064453Z"/>
<path id="font_9_87" d="M.076171878 .5185547H.09082031V.59843447C.09082031 .6198578 .09138998 .6366577 .0925293 .6488342 .09366862 .66101077 .096842449 .67148336 .10205078 .6802521 .10725912 .6893463 .114746097 .69673159 .12451172 .70240786 .13427735 .7080943 .1451823 .7109375 .15722656 .7109375 .17415364 .7109375 .18945313 .7046051 .203125 .6919403 .21223958 .68349716 .21801758 .67318728 .22045899 .66101077 .22290039 .6488342 .2241211 .631546 .2241211 .6091461V.5185547H.27294923C.29182945 .5185547 .30623374 .51405337 .3161621 .50505068 .32609049 .49605815 .3310547 .4845276 .3310547 .47045899 .3310547 .45246379 .3239746 .4398651 .30981446 .43266297 .2956543 .42547099 .27539063 .421875 .24902344 .421875H.2241211V.17675781C.2241211 .15592449 .22485352 .13989258 .22631836 .12866211 .2277832 .11743164 .23168946 .108317058 .23803711 .10131836 .24438477 .094319667 .25472007 .09082031 .26904298 .09082031 .27685548 .09082031 .2874349 .09220377 .30078126 .0949707 .3141276 .09773763 .32454429 .099121097 .33203126 .099121097 .34277345 .099121097 .35245768 .0947876 .36108399 .086120609 .3697103 .07746378 .37402345 .0667572 .37402345 .054000856 .37402345 .032424928 .3623047 .015914917 .3388672 .004470825 .3154297-.0069732668 .28173829-.0126953129 .23779297-.0126953129 .1961263-.0126953129 .16455078-.0056915285 .1430664 .00831604 .12158203 .02233378 .10750326 .041727704 .10083008 .0664978 .0941569 .091267909 .09082031 .12434387 .09082031 .16572571V.421875H.07324219C.054036458 .421875 .03938802 .42645265 .029296875 .4356079 .019205729 .44477336 .014160156 .45639039 .014160156 .47045899 .014160156 .4845276 .01944987 .49605815 .030029297 .50505068 .040608724 .51405337 .055989583 .5185547 .076171878 .5185547Z"/>
<path id="font_9_82" d="M.5678711 .2590332C.5678711 .21920777 .5616862 .18248494 .5493164 .14886475 .5369466 .11525472 .51904299 .086369838 .49560548 .062210084 .47216798 .038060506 .4441732 .019536337 .4116211 .0066375734 .379069-.006251017 .3424479-.0126953129 .3017578-.0126953129 .26139323-.0126953129 .22509766-.006174723 .1928711 .006866455 .16064453 .019917807 .13273113 .038589479 .10913086 .06288147 .0855306 .08717346 .06762695 .115870159 .055419923 .14897156 .04321289 .18207295 .037109376 .21867879 .037109376 .25878907 .037109376 .29922486 .04329427 .33623759 .055664064 .36982728 .06803385 .40341697 .08577474 .43211366 .10888672 .45591737 .1319987 .47972108 .15999349 .49806214 .1928711 .51094058 .2257487 .52382919 .26204429 .53027346 .3017578 .53027346 .3421224 .53027346 .3787435 .52375796 .4116211 .5107269 .4444987 .49769593 .47265626 .47912089 .49609376 .45500184 .51953127 .43089295 .5373535 .40222169 .54956057 .36898805 .5617676 .33576457 .5678711 .29911296 .5678711 .2590332M.43408204 .2590332C.43408204 .31347657 .42211915 .35585533 .39819337 .38616944 .37426759 .41648356 .3421224 .43164063 .3017578 .43164063 .27571617 .43164063 .25276695 .4248759 .23291016 .41134645 .21305339 .397817 .1977539 .3778483 .18701172 .35144044 .17626953 .32504273 .17089844 .29424034 .17089844 .2590332 .17089844 .22415161 .17618816 .19366963 .18676758 .16758728 .197347 .14151509 .21248372 .12155151 .23217774 .10769653 .25187174 .09384155 .2750651 .08691406 .3017578 .08691406 .3421224 .08691406 .37426759 .102152507 .39819337 .1326294 .42211915 .16310628 .43408204 .20524089 .43408204 .2590332Z"/>
<path id="font_9_41" d="M.5058594 .6044922H.22021485V.42089845H.45898438C.48111979 .42089845 .49763999 .4159088 .5085449 .40592958 .5194499 .39596049 .52490237 .38263957 .52490237 .3659668 .52490237 .34929405 .51936849 .3360494 .5083008 .3262329 .49723307 .3164266 .48079429 .31152345 .45898438 .31152345H.22021485V.075683597C.22021485 .045735677 .21346028 .02351888 .19995117 .009033203 .18644206-.005452474 .16910808-.0126953129 .14794922-.0126953129 .12646485-.0126953129 .1089681-.0053660075 .095458988 .009292603 .08194987 .023951212 .07519531 .046101888 .07519531 .07574463V.6268921C.07519531 .6477356 .07828776 .6647542 .084472659 .677948 .090657558 .6911418 .1003418 .7007497 .11352539 .70677188 .12670899 .71280416 .14355469 .7158203 .1640625 .7158203H.5058594C.5289714 .7158203 .5461426 .7107137 .55737307 .7005005 .5686035 .6902974 .57421877 .6769307 .57421877 .6604004 .57421877 .6435445 .5686035 .63000997 .55737307 .61979678 .5461426 .6095937 .5289714 .6044922 .5058594 .6044922Z"/>
<clipPath id="clip_10">
<path transform="matrix(1,0,0,-1,-86.66055,458.06507)" d="M.000014305 0H960V540H.000014305Z" clip-rule="evenodd"/>
</clipPath>
<path id="font_11_695" d="M.78125 .4033203V.35839845H.21923828V.4033203H.78125Z"/>
<clipPath id="clip_12">
<path transform="matrix(1,0,0,-1,-86.66055,458.06507)" d="M.000014305 0H960V540H.000014305Z" clip-rule="evenodd"/>
</clipPath>
<path id="font_9_55" d="M.54296877 .5957031H.38476563V.075683597C.38476563 .045735677 .37809245 .02351888 .3647461 .009033203 .35139976-.005452474 .33414714-.0126953129 .31298829-.0126953129 .2915039-.0126953129 .27400718-.0053710939 .26049806 .009277344 .24698894 .023925782 .24023438 .0460612 .24023438 .075683597V.5957031H.08203125C.057291669 .5957031 .03889974 .60117599 .026855469 .6121216 .014811198 .6230774 .0087890629 .6375427 .0087890629 .6555176 .0087890629 .6741435 .015055339 .68884786 .02758789 .69963076 .04012044 .71042379 .05826823 .7158203 .08203125 .7158203H.54296877C.5680339 .7158203 .5866699 .71026107 .59887698 .69914248 .611084 .68803408 .6171875 .67349246 .6171875 .6555176 .6171875 .6375427 .6110026 .6230774 .5986328 .6121216 .586263 .60117599 .5677083 .5957031 .54296877 .5957031Z"/>
<path id="font_9_59" d="M.051757814 .13905335 .21191406 .37353517 .07714844 .58154299C.064453128 .6017253 .05493164 .61905929 .048583986 .6335449 .042236329 .6480306 .0390625 .6619466 .0390625 .67529299 .0390625 .68896487 .045166017 .70125326 .057373048 .7121582 .06958008 .7230632 .084472659 .7285156 .10205078 .7285156 .12223307 .7285156 .13793946 .7225749 .14916992 .71069338 .16040039 .6988118 .17594402 .6767578 .19580078 .64453127L.30322267 .47070313 .41796876 .64453127C.42740885 .6591797 .43546549 .6717122 .44213868 .6821289 .44881187 .6925456 .45524089 .7011719 .46142579 .7080078 .4676107 .71484377 .47452799 .7199707 .48217774 .7233887 .48982749 .72680667 .4986979 .7285156 .50878909 .7285156 .52701827 .7285156 .5419108 .7230632 .5534668 .7121582 .56502279 .70125326 .5708008 .6883138 .5708008 .67333987 .5708008 .65152999 .55826827 .62190756 .5332031 .58447268L.39208985 .37353517 .5439453 .13905335C.5576172 .11849467 .5675456 .10144043 .57373049 .087890628 .57991537 .07435099 .5830078 .06154378 .5830078 .049468996 .5830078 .038045248 .5802409 .02760315 .57470706 .0181427 .56917318 .008682251 .56136068 .0011800131 .55126956-.0043640139 .5411784-.009918213 .52978518-.0126953129 .51708987-.0126953129 .50341799-.0126953129 .49186198-.009836833 .48242188-.004119873 .47298179 .0015970866 .46533204 .008702596 .45947267 .017196656 .45361329 .025690714 .44270835 .042185468 .4267578 .06668091L.30078126 .265625 .16699219 .060806276C.15657552 .044469198 .14916992 .03303528 .14477539 .026504517 .14038086 .019973755 .13509114 .013600667 .12890625 .007385254 .12272135 .0011800131 .11539713-.0037180584 .106933597-.00730896 .098470058-.010899861 .088541667-.0126953129 .07714844-.0126953129 .059570314-.0126953129 .045003255-.0073140466 .033447267 .0034484864 .021891276 .014221191 .016113282 .02988688 .016113282 .050445558 .016113282 .07459513 .027994791 .104131069 .051757814 .13905335Z"/>
<path id="font_9_3" d="M0 0Z"/>
<path id="font_9_76" d="M.20214844 .4544525V.06851196C.20214844 .04176839 .19580078 .02154541 .18310547 .007843018 .17041016-.0058492028 .15429688-.0126953129 .13476563-.0126953129 .115234378-.0126953129 .099365238-.005686442 .0871582 .008331299 .07495117 .022359213 .068847659 .042419435 .068847659 .06851196V.45054627C.068847659 .47695414 .07495117 .49684144 .0871582 .51020815 .099365238 .523585 .115234378 .53027346 .13476563 .53027346 .15429688 .53027346 .17041016 .523585 .18310547 .51020815 .19580078 .49684144 .20214844 .47825624 .20214844 .4544525M.13623047 .59277346C.11767578 .59277346 .10180664 .5984497 .08862305 .60980227 .07543945 .6211548 .068847659 .63720706 .068847659 .657959 .068847659 .676768 .07560221 .69225057 .08911133 .70440676 .102620448 .71657308 .11832682 .72265627 .13623047 .72265627 .15348308 .72265627 .16878255 .71714279 .1821289 .7061157 .19547527 .6950887 .20214844 .67903646 .20214844 .657959 .20214844 .6375224 .19563802 .62154647 .18261719 .6100311 .16959636 .598526 .15413411 .59277346 .13623047 .59277346Z"/>
<path id="font_9_74" d="M.55908206 .4326172V.04512024C.55908206 .0008087158 .554362-.03730774 .5449219-.069229129 .53548178-.10115051 .52034506-.12753296 .49951173-.14837647 .47867839-.16923015 .45141603-.18470764 .4177246-.19480896 .3840332-.20491028 .3421224-.20996094 .2919922-.20996094 .24609375-.20996094 .20507813-.20354717 .16894531-.1907196 .1328125-.17790222 .10498047-.16134644 .08544922-.14105225 .06591797-.12075806 .056152345-.09989929 .056152345-.07847595 .056152345-.0622406 .0616862-.049006147 .072753909-.038772584 .08382162-.028549195 .09716797-.0234375 .11279297-.0234375 .13232422-.0234375 .14941406-.031901044 .1640625-.048828126 .17122396-.057617189 .17862956-.06648763 .1862793-.07543945 .19392903-.08439127 .20239258-.092041019 .21166992-.09838867 .22094727-.10473633 .23209636-.10945638 .24511719-.11254883 .25813804-.11564127 .27311198-.1171875 .29003907-.1171875 .32454429-.1171875 .35131837-.11237589 .37036134-.102752689 .3894043-.09312948 .40275065-.07967123 .4104004-.06237793 .41805015-.045094808 .42252604-.026585898 .42382813-.0068511965 .42513023 .012883504 .42610679 .044606527 .4267578 .08831787 .40625 .05952962 .38256837 .037612916 .3557129 .022567749 .32885743 .007522583 .296875 0 .25976563 0 .21516927 0 .17618816 .011403401 .14282227 .034210206 .10945638 .05701701 .08382162 .08894857 .06591797 .13000489 .048014326 .1710612 .0390625 .21846517 .0390625 .2722168 .0390625 .31229655 .044514974 .34846498 .055419923 .38072206 .06632487 .41297914 .08186849 .44018556 .10205078 .4623413 .12223307 .48449708 .14550781 .50119528 .171875 .5124359 .19824219 .5236766 .22721355 .5292969 .25878907 .5292969 .29654948 .5292969 .3292643 .522054 .3569336 .50756838 .38460288 .49308268 .410319 .4703776 .43408204 .43945313V.45751954C.43408204 .4806315 .43977867 .49853517 .45117188 .51123049 .4625651 .5239258 .47721354 .53027346 .4951172 .53027346 .5208333 .53027346 .53792318 .5218913 .5463867 .50512698 .5548503 .48836265 .55908206 .46419273 .55908206 .4326172M.17285156 .26367188C.17285156 .20963542 .18465169 .16878255 .20825196 .14111328 .23185222 .11344401 .26236979 .099609378 .2998047 .099609378 .3219401 .099609378 .34285484 .10555013 .36254884 .11743164 .38224284 .12931316 .39827476 .1472168 .41064454 .17114258 .4230143 .19506836 .42919923 .2241211 .42919923 .25830079 .42919923 .31266276 .41723634 .35498048 .39331056 .3852539 .36938478 .41552735 .33789063 .43066407 .29882813 .43066407 .2607422 .43066407 .23022461 .41617839 .20727539 .38720704 .18432617 .3582357 .17285156 .31705729 .17285156 .26367188Z"/>
<path id="font_9_88" d="M.41503907 .06285095V.08001709C.39908854 .059743246 .38232423 .042734785 .3647461 .0289917 .34716798 .015258789 .32796226 .005040487 .3071289-.001663208 .28629557-.008366902 .26253257-.01171875 .23583985-.01171875 .20361328-.01171875 .17472331-.005015055 .14916992 .008392334 .12361654 .021799723 .10384115 .040278119 .08984375 .063827518 .07324219 .092188518 .064941409 .13293457 .064941409 .18606568V.45057679C.064941409 .47731019 .07096354 .49727378 .08300781 .5104675 .095052089 .52367147 .1110026 .53027346 .13085938 .53027346 .15104167 .53027346 .1673177 .5235901 .1796875 .5102234 .1920573 .49686686 .19824219 .47698976 .19824219 .45059205V.23698426C.19824219 .20601909 .20084636 .18002828 .20605469 .15901184 .21126302 .1379954 .22062175 .121536258 .23413086 .1096344 .24763997 .097742717 .26595054 .091796878 .2890625 .091796878 .31152345 .091796878 .33268229 .098475139 .35253907 .111831668 .37239585 .12519837 .3868815 .14263408 .3959961 .1641388 .40348307 .18303935 .40722657 .22442627 .40722657 .28829957V.45059205C.40722657 .47698976 .41341148 .49686686 .42578126 .5102234 .43815104 .5235901 .4542643 .53027346 .4741211 .53027346 .49397788 .53027346 .5099284 .5236664 .52197268 .5104523 .5340169 .49724833 .54003909 .47727967 .54003909 .45054627V.06361389C.54003909 .038172407 .53426107 .019093832 .5227051 .006378174 .5111491-.006337484 .4962565-.0126953129 .47802735-.0126953129 .4597982-.0126953129 .44474284-.006072998 .43286134 .007171631 .42097984 .02041626 .41503907 .038976034 .41503907 .06285095Z"/>
<path id="font_9_85" d="M.20117188 .17990113V.06845093C.20117188 .04140218 .19482422 .021113078 .1821289 .007583618 .1694336-.005935669 .15332031-.0126953129 .13378906-.0126953129 .114583339-.0126953129 .09879557-.0058492028 .08642578 .007843018 .07405599 .02154541 .067871097 .04176839 .067871097 .06851196V.44026185C.067871097 .5002696 .08951823 .53027346 .1328125 .53027346 .15494792 .53027346 .17089844 .5232442 .18066406 .5091858 .19042969 .49512736 .19580078 .47437034 .19677735 .44691468 .21272786 .47437034 .22908528 .49512736 .24584961 .5091858 .26261393 .5232442 .2849935 .53027346 .31298829 .53027346 .34098307 .53027346 .36816407 .5232493 .39453126 .50920107 .42089845 .4951528 .43408204 .47653199 .43408204 .45333863 .43408204 .43700157 .4284668 .42352296 .41723634 .41290284 .40600587 .4022827 .39388023 .39697267 .38085938 .39697267 .37597657 .39697267 .36417643 .39998374 .34545899 .40600587 .32674156 .41202799 .31022135 .41503907 .29589845 .41503907 .2763672 .41503907 .26041667 .409907 .24804688 .39964295 .23567708 .38937889 .22607422 .3741404 .21923828 .3539276 .21240235 .33372499 .2076823 .30969239 .20507813 .28182984 .20247396 .2539673 .20117188 .21999105 .20117188 .17990113Z"/>
<path id="font_9_72" d="M.44091798 .22558594H.18017578C.1805013 .19541423 .18660482 .16880799 .19848633 .14576721 .21036785 .12272644 .2261556 .10536703 .24584961 .093688968 .2655436 .0820109 .28727214 .076171878 .31103517 .076171878 .3269857 .076171878 .34155274 .078038539 .35473634 .08177185 .36791993 .085505168 .38069663 .0913442 .3930664 .09928894 .4054362 .10724386 .41682945 .115763347 .4272461 .12484741 .43766276 .13393148 .45117188 .14626058 .46777345 .16183472 .47460938 .16767375 .484375 .17059326 .4970703 .17059326 .5107422 .17059326 .5218099 .16684468 .53027346 .15934754 .538737 .15186055 .54296877 .14127095 .54296877 .12757874 .54296877 .11552429 .5382487 .10143026 .5288086 .08529663 .51936849 .06917318 .50512698 .05369568 .48608399 .038864137 .46704103 .024042765 .44311524 .011744182 .41430665 .0019683839 .38549806-.0078074138 .3523763-.0126953129 .3149414-.0126953129 .22932942-.0126953129 .16276042 .01175944 .115234378 .060668947 .067708339 .10958862 .043945314 .17595418 .043945314 .25976563 .043945314 .29922486 .049804689 .3358307 .061523439 .36958314 .07324219 .40333558 .09033203 .4322764 .11279297 .45640565 .1352539 .48053489 .16292317 .4990387 .19580078 .5119171 .22867839 .5248057 .26513673 .53125 .30517579 .53125 .35725913 .53125 .40193687 .5202281 .43920899 .4981842 .4764811 .47614036 .50439456 .4476471 .5229492 .41270448 .5415039 .37776185 .55078127 .34216819 .55078127 .30592347 .55078127 .27228294 .5411784 .25048319 .52197268 .24052429 .5027669 .23056539 .4757487 .22558594 .44091798 .22558594M.18017578 .3017578H.421875C.41861979 .3474935 .4063314 .38171388 .38500978 .40441896 .36368815 .42712403 .33561198 .43847657 .30078126 .43847657 .26757813 .43847657 .24031575 .42696128 .21899414 .40393067 .19767253 .38090007 .18473308 .34684245 .18017578 .3017578Z"/>
<path id="font_9_86" d="M.49804688 .16223145C.49804688 .12531536 .48909507 .09370931 .4711914 .06741333 .45328776 .04111735 .4268392 .021189372 .3918457 .0076293947 .3568522-.00592041 .31429038-.0126953129 .26416017-.0126953129 .2163086-.0126953129 .17529297-.0053507487 .14111328 .009338379 .106933597 .02403768 .08170573 .04240926 .06542969 .064453128 .049153646 .08649699 .041015626 .10862223 .041015626 .13082886 .041015626 .14551799 .046223958 .15808614 .056640626 .16853333 .06705729 .17899068 .08024088 .18421936 .096191409 .18421936 .110188808 .18421936 .12093099 .18079631 .12841797 .1739502 .13590496 .16710408 .1430664 .15749105 .14990235 .14511109 .16357422 .12131754 .17993164 .10355123 .19897461 .091812137 .21801758 .080083217 .24397786 .07421875 .27685548 .07421875 .3035482 .07421875 .32543946 .08016459 .3425293 .092056278 .35961915 .10395813 .36816407 .11756897 .36816407 .1328888 .36816407 .15635681 .3592936 .173467 .34155274 .18421936 .32381187 .19498189 .29459635 .20525106 .25390626 .21502686 .20800781 .22643025 .1706543 .23840332 .1418457 .25094605 .11303711 .26348878 .09000651 .2800242 .072753909 .30055238 .0555013 .32108055 .046875 .34633384 .046875 .37631227 .046875 .4030355 .05485026 .4282888 .07080078 .45207215 .086751308 .4758555 .11027018 .49483238 .14135742 .5090027 .17244466 .52318319 .20996094 .53027346 .25390626 .53027346 .28841148 .53027346 .31941734 .5266927 .34692384 .51953127 .37443034 .5123698 .39737956 .5027669 .41577149 .49072267 .43416343 .47867839 .4481608 .46533204 .45776368 .4506836 .46736656 .43603517 .47216798 .42171226 .47216798 .40771485 .47216798 .39241538 .46704103 .3798828 .4567871 .3701172 .4465332 .36035157 .43196617 .35546876 .41308595 .35546876 .39941407 .35546876 .3877767 .3593699 .37817384 .36717225 .36857096 .37497459 .35758464 .38667808 .34521485 .4022827 .3351237 .41532389 .3232422 .42575584 .3095703 .4335785 .29589845 .44140116 .27734376 .4453125 .25390626 .4453125 .2298177 .4453125 .20979817 .44017539 .19384766 .42990113 .17789714 .41963706 .16992188 .4068502 .16992188 .39154054 .16992188 .3775228 .17578125 .36603294 .1875 .35707093 .19921875 .34810893 .21500652 .34069316 .23486328 .3348236 .25472007 .32895408 .2820638 .32178245 .31689454 .31330873 .3582357 .3032074 .39200846 .29114787 .4182129 .27713014 .44441734 .2631124 .46427409 .24656677 .4777832 .22749329 .49129234 .20842998 .49804688 .18667603 .49804688 .16223145Z"/>
</defs>
<g clip-path="url(#clip_1)">
<g clip-path="url(#clip_2)">
<g clip-path="url(#clip_3)">
<path transform="matrix(1,0,0,-1,-86.66055,458.06507)" d="M0 .000061035H960V540.00009H0Z" fill="#ffffff" fill-rule="evenodd"/>
</g>
<g clip-path="url(#clip_4)">
<use data-text="P" xlink:href="#font_5_375" transform="matrix(199.03,0,0,-199.03,36.88945,184.32508)" fill="#d24726"/>
<use data-text="P" xlink:href="#font_5_375" stroke-width=".028571574" stroke-linecap="butt" stroke-miterlimit="10" stroke-linejoin="miter" transform="matrix(199.03,0,0,-199.03,36.88945,184.32508)" fill="none" stroke="#d24726"/>
</g>
<path transform="matrix(1,0,0,-1,-86.66055,458.06507)" stroke-width="6" stroke-linecap="butt" stroke-dasharray="18,6" stroke-miterlimit="10" stroke-linejoin="miter" fill="none" stroke="#22d3ee" d="M125.88 416.6C125.88 423.98 131.86 429.96 139.24 429.96H192.68C200.06 429.96 206.04 423.98 206.04 416.6V273.16C206.04 265.78 200.06 259.8 192.68 259.8H139.24C131.86 259.8 125.88 265.78 125.88 273.16Z"/>
<path transform="matrix(1,0,0,-1,-86.66055,458.06507)" d="M361.92 418.56H421.01L423.6 418.43V389.28L421.15 390.1C418.9 390.55 416.43 390.78 413.75 390.78H396.12V346.1H413.85C416.53 346.1 418.99 346.34 421.23 346.81L423.6 347.63V319.18L420.05 319H396.12V273.84H361.92V418.56Z" fill="#d24726" fill-rule="evenodd"/>
<path transform="matrix(1,0,0,-1,-86.66055,458.06507)" stroke-width="1" stroke-linecap="butt" stroke-miterlimit="10" stroke-linejoin="miter" fill="none" stroke="#ffffff" d="M361.92 418.56H421.01L423.6 418.43V389.28L421.15 390.1C418.9 390.55 416.43 390.78 413.75 390.78H396.12V346.1H413.85C416.53 346.1 418.99 346.34 421.23 346.81L423.6 347.63V319.18L420.05 319H396.12V273.84H361.92V418.56Z"/>
<g clip-path="url(#clip_6)">
<use data-text="t" xlink:href="#font_7_888" transform="matrix(54.024,0,0,-54.024,182.73944,112.84506)"/>
<use data-text="o" xlink:href="#font_7_790" transform="matrix(54.024,0,0,-54.024,204.3634,112.84506)"/>
</g>
<path transform="matrix(1,0,0,-1,-86.66055,458.06507)" d="M265.56 330H313.77V324H265.56ZM310.77 336 328.77 327 310.77 318Z" fill="#0ea5a5"/>
<g clip-path="url(#clip_8)">
<use data-text="P" xlink:href="#font_9_51" transform="matrix(36.024,0,0,-36.024,406.82945,124.94507)"/>
<use data-text="t" xlink:href="#font_9_87" transform="matrix(36.024,0,0,-36.024,430.85746,124.94507)"/>
<use data-text="o" xlink:href="#font_9_82" transform="matrix(36.024,0,0,-36.024,443.60997,124.94507)"/>
<use data-text="F" xlink:href="#font_9_41" transform="matrix(36.024,0,0,-36.024,465.36845,124.94507)"/>
</g>
<g clip-path="url(#clip_10)">
<use data-text="&#xff0d;" xlink:href="#font_11_695" transform="matrix(36.024,0,0,-36.024,496.12944,124.94507)"/>
</g>
<g clip-path="url(#clip_12)">
<use data-text="P" xlink:href="#font_9_51" transform="matrix(36.024,0,0,-36.024,541.0094,124.94507)"/>
<use data-text="P" xlink:href="#font_9_51" transform="matrix(36.024,0,0,-36.024,565.0375,124.94507)"/>
<use data-text="T" xlink:href="#font_9_55" transform="matrix(36.024,0,0,-36.024,589.0654,124.94507)"/>
<use data-text="X" xlink:href="#font_9_59" transform="matrix(36.024,0,0,-36.024,611.58047,124.94507)"/>
<use data-text=" " xlink:href="#font_9_3" transform="matrix(36.024,0,0,-36.024,633.447,124.94507)"/>
<use data-text="t" xlink:href="#font_9_87" transform="matrix(36.024,0,0,-36.024,642.345,124.94507)"/>
<use data-text="o" xlink:href="#font_9_82" transform="matrix(36.024,0,0,-36.024,655.0974,124.94507)"/>
<use data-text=" " xlink:href="#font_9_3" transform="matrix(36.024,0,0,-36.024,676.85598,124.94507)"/>
<use data-text="F" xlink:href="#font_9_41" transform="matrix(36.024,0,0,-36.024,686.006,124.94507)"/>
<use data-text="i" xlink:href="#font_9_76" transform="matrix(36.024,0,0,-36.024,707.3683,124.94507)"/>
<use data-text="g" xlink:href="#font_9_74" transform="matrix(36.024,0,0,-36.024,717.13076,124.94507)"/>
<use data-text="u" xlink:href="#font_9_88" transform="matrix(36.024,0,0,-36.024,739.7539,124.94507)"/>
<use data-text="r" xlink:href="#font_9_85" transform="matrix(36.024,0,0,-36.024,761.5123,124.94507)"/>
<use data-text="e" xlink:href="#font_9_72" transform="matrix(36.024,0,0,-36.024,776.4623,124.94507)"/>
<use data-text="s" xlink:href="#font_9_86" transform="matrix(36.024,0,0,-36.024,797.8606,124.94507)"/>
</g>
</g>
</g>
</svg>
